<mxfile host="app.diagrams.net" modified="2023-09-14T08:37:19.194Z" agent="Mozilla/5.0 (X11; Linux x86_64) AppleWebKit/537.36 (KHTML, like Gecko) Chrome/112.0.0.0 Safari/537.36" version="21.1.7" etag="3LjD1-Ss7vT7mRy8klCA" type="github">
  <diagram name="第 1 页" id="zT4W01S-cl8MvEPdsr_O">
    <mxGraphModel>
      <root>
        <mxCell id="0" />
        <mxCell id="1" parent="0" />
      </root>
    </mxGraphModel>
  </diagram>
</mxfile>
